# xmcd CD database file
#
# Track frame offsets:
#	150
#	27975
#	55033
#	81965
#	107560
#	135045
#	170033
#	185388
#	224730
#	256165
#	292153
#	333188
#
# Disc length: 4723 seconds
#
# Revision: 2
# Processed by: cddbd v1.5.1PL0 Copyright (c) Steve Scherf et al.
# Submitted via: CDex 1.51
#
DISCID=aa12710c
DTITLE=F&C FC02 - ホワイトブレス With Faint Hope
DYEAR=2004
DGENRE=Drama
TTITLE0=1997年05月12日 未緒――広い背中につかまって
TTITLE1=1997年11月18日 美乃――振り返れば彼がいて
TTITLE2=1998年06月29日 歩――あなたの優しさをわけてください
TTITLE3=1998年11月25日 凪沙――あの時のままではいられない
TTITLE4=1998年04月23日 ののか――見つめる先に
TTITLE5=1999年12月13日 歩――ほんとうの自分、ほんとうの気持ち
TTITLE6=1999年04月26日 刹那――過ぎゆく日々
TTITLE7=1999年06月02日 美乃――唇が覚えてる
TTITLE8=1999年08月01日 凪沙――取り戻せない、あの……
TTITLE9=1999年10月10日 ののか――偽りのない想いで
TTITLE10=1999年12月13日 未緒――ホワイトブレス
TTITLE11=DATA TRACK
EXTD=YEAR: 2004
EXTT0=
EXTT1=
EXTT2=
EXTT3=
EXTT4=
EXTT5=
EXTT6=
EXTT7=
EXTT8=
EXTT9=
EXTT10=
EXTT11=
PLAYORDER=
